<svg xmlns="http://www.w3.org/2000/svg" width="64" height="64" viewBox="0 0 64 64" fill="none" stroke="currentColor" stroke-width="2" stroke-linecap="round" stroke-linejoin="round"><path d="M6 32a26 26 0 1 0 52 0a26 26 0 1 0 -52 0"></path><path d="M14 32a18 18 0 1 0 36 0a18 18 0 1 0 -36 0"></path><path d="M28 32a4 4 0 1 0 8 0a4 4 0 1 0 -8 0"></path><path d="M41 32h.01"></path><path d="M36.5 40.8h.01"></path><path d="M27.5 40.8h.01"></path><path d="M23 32h.01"></path><path d="M27.5 23.2h.01"></path><path d="M36.5 23.2h.01"></path></svg>